<svg xmlns="http://www.w3.org/2000/svg" width="109.562" height="36.555" viewBox="-15.367 -19.25 109.562 36.555" enable-background="new -15.367 -19.25 109.562 36.555"><g fill="#ACAAAB"><path d="M84.826 3.294h-3.155v-3.418h3.155v-6.249h4.522v6.249h4.846v3.418h-4.846v6.933c0 1.412.285 2.328.86 2.752.576.422 1.751.354 3.528.354h.457v3.69s-2.43.01-4.133.005c-1.701-.005-3.015-.466-3.902-1.398-.891-.935-1.334-2.246-1.334-3.938l.002-8.398zM78.729 1.523c-1.912-1.754-4.867-1.819-6.942-1.819h-.007c-2.076 0-5.028.064-6.943 1.819-2.012 1.817-2.207 5.129-2.207 7.044 0 1.756.162 5.002 2.207 6.886 1.915 1.721 4.867 1.852 6.943 1.852h.007c2.075 0 5.03-.131 6.942-1.852 2.045-1.884 2.207-5.13 2.207-6.886.001-1.915-.194-5.227-2.207-7.044zm-2.026 7.012c0 .915.03 2.518-1.039 3.783-1.138 1.268-2.481 1.416-3.877 1.416h-.007c-1.396 0-2.74-.148-3.877-1.416-1.069-1.268-1.039-2.868-1.039-3.783 0-.912-.057-2.777 1.015-4.01 1.072-1.234 2.669-1.223 3.901-1.223h.007c1.231 0 2.831-.012 3.901 1.223 1.071 1.232 1.015 3.098 1.015 4.01zM55.584 4.562c-.263.391-.392 1.149-.392 2.277v10.223h-4.424v-10.613c0-2.387.596-4.091 1.789-5.11 1.105-.955 2.875-1.433 5.305-1.433 2.428 0 4 .089 4 .089v3.716s-2.396-.061-3.676-.061c-1.281-.001-2.19.304-2.602.912zM43.455 4.562c-.261.391-.39 1.149-.39 2.277v10.223h-4.425v-10.613c0-2.387.596-4.091 1.791-5.11 1.104-.955 2.871-1.433 5.301-1.433l4.002.089v3.716s-2.396-.061-3.676-.061c-1.284-.001-2.191.304-2.603.912zM11.866 13.397h4.75v3.679h-6.083c-2.972 0-5.222-.755-6.752-2.262-1.526-1.51-2.293-3.598-2.293-6.268 0-2.364.511-4.244 1.529-5.631 1.476-1.997 3.98-2.995 7.516-2.995h6.083v3.743h-4.75c-1.888 0-3.21.25-3.969.749-1.085.717-1.626 2.096-1.626 4.135 0 1.477.292 2.571.879 3.287.866 1.043 2.439 1.563 4.716 1.563zM27.397 3.469h-7.579v-3.549h9.271c4.707 0 7.059 2.138 7.059 6.414v10.741h-12.132c-1.647 0-2.951-.457-3.904-1.366-.955-.912-1.432-2.148-1.432-3.711 0-2.084.672-3.537 2.016-4.363 1.064-.649 2.68-.978 4.849-.978h5.985c0-1.214-.293-2.051-.879-2.505-.587-.456-1.671-.683-3.254-.683zm-1.527 10.187h5.659v-3.579h-5.335c-.824 0-1.431.087-1.821.261-.606.261-.91.771-.91 1.529 0 .719.188 1.193.568 1.432.379.242.991.357 1.839.357z"/><polygon points="-5.293,5.84 -13.235,2.632 -15.367,6.037 -6.724,8.483 -15.359,10.762 -13.227,14.168 -5.33,11.144 -10.298,17.055 -5.838,17.055 0.117,8.496 -5.831,-0.052 -10.286,-0.052"/></g><g fill="#ACAAAB"><path d="M22.479-11.683c0 1.199-.635 2.183-3.034 2.183h-3.275v-7.496h3.25c2.231 0 2.831.852 2.831 1.955 0 .852-.528 1.379-1.392 1.619.96.18 1.62.816 1.62 1.739zm-3.238-3.886h-1.224v1.727h1.127c.792 0 1.199-.324 1.199-.887.001-.552-.383-.84-1.102-.84zm0 2.915h-1.224v1.727h1.283c.864 0 1.259-.276 1.259-.863.001-.636-.515-.864-1.318-.864zM26.86-9.32c-1.955 0-3.298-.959-3.298-3.07v-4.605h1.895v4.354c0 1.127.456 1.715 1.451 1.715.899 0 1.367-.479 1.367-1.643v-4.426h1.895v4.438c0 2.169-1.295 3.237-3.31 3.237zM31.686-9.5v-7.496h1.907v7.496h-1.907zM35.178-9.5v-7.496h1.907v5.901h3.142v1.595h-5.049zM43.888-15.401v5.901h-1.907v-5.901h-2.387v-1.595h6.681v1.595h-2.387zM56.979-9.5h-1.896l-.552-1.595h-2.783l-.539 1.595h-1.895l2.663-7.496h2.387l2.615 7.496zm-3.827-6.021l-.996 2.938h1.955l-.959-2.938zM60.771-15.401v5.901h-1.906v-5.901h-2.387v-1.595h6.68v1.595h-2.387z"/></g></svg>