<svg width="65" height="65" xmlns="http://www.w3.org/2000/svg" xmlns:sketch="http://www.bohemiancoding.com/sketch/ns"><title>logo</title><path d="M36.222 23.778c1.037 1.037 1.037 2.719 0 3.756l-5.688 5.688c-1.037 1.037-2.719 1.037-3.756 0-1.038-1.037-1.038-2.72-.001-3.756l5.688-5.688c1.037-1.037 2.719-1.037 3.757 0zm-25.222 15.893l2.204 9.657 8.323 3.672s17.648-18.066 21.928-22.447c4.759-4.871 8.115-6.699 11.08-7.674 20.412-6.713 7.925-32.212-11.517-19.266-9.313 6.202-24.986 26.817-32.018 36.058zm36.93-22.364l-25.388 25.693-2.542-7.876 22.768-23.042c1.426-1.443 3.738-1.442 5.163 0 1.425 1.443 1.425 3.782-.001 5.225zm-42.574 42.138l-1.947-7.117 5.274-5.114-.767-3.214-7.916 7.677 3.709 13.323 12.291-11.918-2.852-1.193-7.791 7.555z" fill="#fff" sketch:type="MSShapeGroup"/></svg>